<?xml version="1.0" encoding="UTF-8"?>
<svg width="32px" height="28px" viewBox="0 0 32 28" version="1.1" xmlns="http://www.w3.org/2000/svg" xmlns:xlink="http://www.w3.org/1999/xlink">
    <!-- Generator: Sketch 58 (84663) - https://sketch.com -->
    <title>LogoMerged</title>
    <desc>Created with Sketch.</desc>
    <g id="Symbols" stroke="none" stroke-width="1" fill="none" fill-rule="evenodd">
        <g id="Logo" transform="translate(0.000000, -2.000000)">
            <g transform="translate(0.000000, 2.000000)">
                <g id="R" transform="translate(13.000000, 0.000000)" fill="#2D2D2D">
                    <rect id="Rectangle" x="0" y="0" width="10.1544885" height="28"></rect>
                    <ellipse id="Oval" cx="10.1941545" cy="8.83687943" rx="8.80584551" ry="8.83687943"></ellipse>
                    <polygon id="Triangle" points="10.1941545 10.3262411 19 28 1.38830898 28"></polygon>
                </g>
                <g id="T" fill="#999999">
                    <path d="M7.7172248,1.19318182 L14.1983222,1.19318182 C14.7380908,1.19318182 14.933079,1.24923244 15.1306498,1.35524122 C15.3282207,1.46246849 15.4831782,1.61843543 15.5890658,1.8158311 C15.6949534,2.01444525 15.7504798,2.21184091 15.7504798,2.75528822 L15.7504798,26.4378936 C15.7504798,26.9813409 15.6949534,27.1775181 15.5890658,27.3761322 C15.4831782,27.5747464 15.3282207,27.7307133 15.1306498,27.8367221 C14.933079,27.9427309 14.7380908,28 14.1983222,28 L7.7172248,28 C7.17745618,28 6.98246799,27.9427309 6.78489718,27.8367221 C6.58732637,27.7307133 6.43236887,27.5747464 6.32648124,27.3761322 C6.22188493,27.1775181 6.16506718,26.9813409 6.16506718,26.4378936 L6.16506718,2.75528822 C6.16506718,2.21184091 6.22188493,2.01444525 6.32648124,1.8158311 C6.43236887,1.61843543 6.58732637,1.46246849 6.78489718,1.35524122 C6.98246799,1.24923244 7.17745618,1.19318182 7.7172248,1.19318182" id="Fill-4"></path>
                    <path d="M1.54924086,0 L20.4494594,0 C20.9901341,0 21.1850889,0.0492193018 21.3813434,0.14027501 C21.5788976,0.231330718 21.7335618,0.366683798 21.8375377,0.537720872 C21.9428133,0.708757946 22,0.878564537 22,1.34860887 L22,7.52070931 C22,7.98952316 21.9428133,8.15932975 21.8375377,8.33159731 C21.7335618,8.50263438 21.5788976,8.63675698 21.3813434,8.72904317 C21.1850889,8.82009888 20.9901341,8.86931818 20.4494594,8.86931818 L1.54924086,8.86931818 C1.00986589,8.86931818 0.814911089,8.82009888 0.618656584,8.72904317 C0.421102381,8.63675698 0.266438235,8.50263438 0.16116264,8.33159731 C0.0558870444,8.15932975 0,7.98952316 0,7.52070931 L0,1.34860887 C0,0.878564537 0.0558870444,0.708757946 0.16116264,0.537720872 C0.266438235,0.366683798 0.421102381,0.231330718 0.618656584,0.14027501 C0.814911089,0.0492193018 1.00986589,0 1.54924086,0" id="Fill-7"></path>
                </g>
            </g>
        </g>
    </g>
</svg>