<?xml version="1.0" encoding="UTF-8"?>
<svg width="38px" height="23px" viewBox="0 0 38 23" version="1.1" xmlns="http://www.w3.org/2000/svg" xmlns:xlink="http://www.w3.org/1999/xlink">
    <!-- Generator: Sketch 58 (84663) - https://sketch.com -->
    <title>Logo</title>
    <desc>Created with Sketch.</desc>
    <g id="Symbols" stroke="none" stroke-width="1" fill="none" fill-rule="evenodd">
        <g id="Logo" fill="#B9B9B9">
            <g id="Combined-Shape">
                <path d="M31,0 L31.0007827,0.0172440394 C34.9110874,0.276659221 38,3.43066056 38,7.28333333 C38,10.3173913 36.0842929,12.9181414 33.3603602,14.0130754 L38,23 L22.9583333,23 L22.9667522,22.9808491 C22.5017073,22.9453868 22.2631464,22.8612165 22.0231543,22.7328673 C21.6972284,22.5585602 21.4414398,22.3027716 21.2671327,21.9768457 C21.0928256,21.6509198 21,21.3276335 21,20.4361148 L21,2.5638852 C21,1.67236646 21.0928256,1.34908022 21.2671327,1.0231543 C21.4414398,0.697228371 21.6972284,0.441439796 22.0231543,0.267132704 C22.3490802,0.0928256111 22.6723665,6.01853049e-17 23.5638852,-1.03584031e-16 L31,0 Z M15.6444481,1.10524536e-15 C16.5359669,-6.42179384e-16 16.8592531,0.0928256111 17.185179,0.267132704 C17.511105,0.441439796 17.7668935,0.697228371 17.9412006,1.0231543 C18.1155077,1.34908022 18.2083333,1.67236646 18.2083333,2.5638852 L18.2083333,5.86944813 C18.2083333,6.76096687 18.1155077,7.08425311 17.9412006,7.41017904 C17.7668935,7.73610496 17.511105,7.99189354 17.185179,8.16620063 C16.8592531,8.34050772 16.5359669,8.43333333 15.6444481,8.43333333 L12.458,8.433 L12.4583333,20.4361148 C12.4583333,21.3276335 12.3655077,21.6509198 12.1912006,21.9768457 C12.0168935,22.3027716 11.761105,22.5585602 11.435179,22.7328673 C11.1092531,22.9071744 10.7859669,23 9.89444813,23 L7.10555187,23 C6.21403313,23 5.89074689,22.9071744 5.56482096,22.7328673 C5.23889504,22.5585602 4.98310646,22.3027716 4.80879937,21.9768457 C4.63449228,21.6509198 4.54166667,21.3276335 4.54166667,20.4361148 L4.541,8.433 L2.5638852,8.43333333 C1.67236646,8.43333333 1.34908022,8.34050772 1.0231543,8.16620063 C0.697228371,7.99189354 0.441439796,7.73610496 0.267132704,7.41017904 C0.0928256111,7.08425311 1.85622056e-16,6.76096687 -3.19471353e-16,5.86944813 L6.90560205e-17,2.5638852 C-4.01235366e-17,1.67236646 0.0928256111,1.34908022 0.267132704,1.0231543 C0.441439796,0.697228371 0.697228371,0.441439796 1.0231543,0.267132704 C1.34908022,0.0928256111 1.67236646,-7.15388826e-17 2.5638852,1.23124504e-16 L15.6444481,1.10524536e-15 Z"></path>
            </g>
        </g>
    </g>
</svg>