<?xml version="1.0" encoding="UTF-8"?>
<svg width="25px" height="22px" viewBox="0 0 25 22" version="1.1" xmlns="http://www.w3.org/2000/svg" xmlns:xlink="http://www.w3.org/1999/xlink">
    <title>Tim Reed</title>
    <g id="Symbols" stroke="none" stroke-width="1" fill="none" fill-rule="evenodd">
        <g id="Logo">
            <g>
                <g id="R" transform="translate(10.000000, 0.000000)" fill="#2D2D2D">
                    <rect id="Rectangle" x="0" y="0" width="8.01670146" height="22"></rect>
                    <ellipse id="Oval" cx="8.0480167" cy="6.94326241" rx="6.9519833" ry="6.94326241"></ellipse>
                    <polygon id="Triangle" points="8.0480167 8.11347518 15 22 1.0960334 22"></polygon>
                </g>
                <g id="T" fill="#999999">
                    <path d="M5.96331007,0.9375 L10.9714308,0.9375 C11.3885247,0.9375 11.5391974,0.981539773 11.6918658,1.06483239 C11.8445341,1.14908239 11.964274,1.27162784 12.0460963,1.42672443 C12.1279185,1.58277841 12.1708253,1.737875 12.1708253,2.16486932 L12.1708253,20.7726307 C12.1708253,21.199625 12.1279185,21.3537642 12.0460963,21.5098182 C11.964274,21.6658722 11.8445341,21.7884176 11.6918658,21.8717102 C11.5391974,21.9550028 11.3885247,22 10.9714308,22 L5.96331007,22 C5.54621614,22 5.39554345,21.9550028 5.24287509,21.8717102 C5.09020674,21.7884176 4.97046685,21.6658722 4.8886446,21.5098182 C4.80782017,21.3537642 4.76391555,21.199625 4.76391555,20.7726307 L4.76391555,2.16486932 C4.76391555,1.737875 4.80782017,1.58277841 4.8886446,1.42672443 C4.97046685,1.27162784 5.09020674,1.14908239 5.24287509,1.06483239 C5.39554345,0.981539773 5.54621614,0.9375 5.96331007,0.9375" id="Fill-4"></path>
                    <path d="M1.19714066,0 L15.801855,0 C16.2196491,0 16.370296,0.0386723085 16.5219472,0.110216079 C16.6746027,0.18175985 16.7941159,0.288108699 16.8744609,0.422494971 C16.9558102,0.556881243 17,0.690300708 17,1.05962125 L17,5.90912875 C17,6.27748248 16.9558102,6.41090195 16.8744609,6.54625503 C16.7941159,6.6806413 16.6746027,6.78602334 16.5219472,6.85853392 C16.370296,6.93007769 16.2196491,6.96875 15.801855,6.96875 L1.19714066,6.96875 C0.780350919,6.96875 0.629704023,6.93007769 0.478052815,6.85853392 C0.325397294,6.78602334 0.205884091,6.6806413 0.124534767,6.54625503 C0.0431854434,6.41090195 0,6.27748248 0,5.90912875 L0,1.05962125 C0,0.690300708 0.0431854434,0.556881243 0.124534767,0.422494971 C0.205884091,0.288108699 0.325397294,0.18175985 0.478052815,0.110216079 C0.629704023,0.0386723085 0.780350919,0 1.19714066,0" id="Fill-7"></path>
                </g>
            </g>
        </g>
    </g>
</svg>