<?xml version="1.0" encoding="UTF-8"?>
<svg width="38px" height="23px" viewBox="0 0 38 23" version="1.1" xmlns="http://www.w3.org/2000/svg" xmlns:xlink="http://www.w3.org/1999/xlink">
    <!-- Generator: Sketch 58 (84663) - https://sketch.com -->
    <title>Logo</title>
    <desc>Created with Sketch.</desc>
    <g id="Symbols" stroke="none" stroke-width="1" fill="none" fill-rule="evenodd">
        <g id="Logo" fill="#B9B9B9">
            <g id="Combined-Shape">
                <path d="M31,0 L31.0007827,0.0172440394 C34.9110874,0.276659221 38,3.43066056 38,7.28333333 C38,10.3173913 36.0842929,12.9181414 33.3603602,14.0130754 L38,23 L22.2819426,23 C21.8361832,23 21.6745401,22.9535872 21.5115771,22.8664336 C21.3486142,22.7792801 21.2207199,22.6513858 21.1335664,22.4884229 C21.0464128,22.3254599 21,22.1638168 21,21.7180574 L21,1.2819426 C21,0.83618323 21.0464128,0.674540111 21.1335664,0.511577148 C21.2207199,0.348614185 21.3486142,0.220719898 21.5115771,0.133566352 C21.6745401,0.0464128056 21.8361832,3.00926524e-17 22.2819426,-5.17920154e-17 L31,0 Z M16.9263907,5.17920154e-17 C17.3721501,-3.00926524e-17 17.5337932,0.0464128056 17.6967562,0.133566352 C17.8597191,0.220719898 17.9876134,0.348614185 18.074767,0.511577148 C18.1619205,0.674540111 18.2083333,0.83618323 18.2083333,1.2819426 L18.2083333,7.15139073 C18.2083333,7.5971501 18.1619205,7.75879322 18.074767,7.92175619 C17.9876134,8.08471915 17.8597191,8.21261344 17.6967562,8.29976698 C17.5337932,8.38692053 17.3721501,8.43333333 16.9263907,8.43333333 L13.046,8.433 L13.0466667,21.7064872 C13.0466667,22.1522465 13.0002539,22.3138896 12.9131003,22.4768526 C12.8259468,22.6398156 12.6980525,22.7677099 12.5350895,22.8548634 C12.3721266,22.9420169 12.2104834,22.9884298 11.7647241,22.9884298 L6.4119426,22.9884298 C5.96618323,22.9884298 5.80454011,22.9420169 5.64157715,22.8548634 C5.47861419,22.7677099 5.3507199,22.6398156 5.26356635,22.4768526 C5.17641281,22.3138896 5.13,22.1522465 5.13,21.7064872 L5.13,8.433 L1.2819426,8.43333333 C0.83618323,8.43333333 0.674540111,8.38692053 0.511577148,8.29976698 C0.348614185,8.21261344 0.220719898,8.08471915 0.133566352,7.92175619 C0.0464128056,7.75879322 2.00617683e-17,7.5971501 -3.45280103e-17,7.15139073 L3.45280103e-17,1.2819426 C-2.00617683e-17,0.83618323 0.0464128056,0.674540111 0.133566352,0.511577148 C0.220719898,0.348614185 0.348614185,0.220719898 0.511577148,0.133566352 C0.674540111,0.0464128056 0.83618323,3.00926524e-17 1.2819426,-5.17920154e-17 L16.9263907,5.17920154e-17 Z"></path>
            </g>
        </g>
    </g>
</svg>