<?xml version="1.0" encoding="utf-8"?>
<!-- Generator: Adobe Illustrator 23.1.1, SVG Export Plug-In . SVG Version: 6.00 Build 0)  -->
<svg version="1.1" id="Layer_1" xmlns="http://www.w3.org/2000/svg" xmlns:xlink="http://www.w3.org/1999/xlink" x="0px" y="0px"
	 viewBox="0 0 25 25" style="enable-background:new 0 0 25 25;" xml:space="preserve">
<style type="text/css">
	.st0{fill:none;stroke:#333333;}
	.st1{fill:#FFFFFF;}
	.st2{fill:#e0e0e0;}
</style>
<title>TR Logo Flat</title>
<desc>Created with Sketch.</desc>
<path id="R" class="st0" d="M24.5,8.9c0-3.6-2.9-6.4-6.5-6.4c-0.2,0-0.4,0-0.5,0v0h-7v21h1.4h5.6h6.7L20,15.1
	C22.6,14.3,24.5,11.8,24.5,8.9z"/>
<polygon id="T_OUTLINE" class="st1" points="17,2 13,2 5,2 1,2 1,9.1 5,9.1 5,24 13,24 13,9.1 17,9.1 "/>
<polygon id="T" class="st2" points="16,2 12,2 4,2 0,2 0,9.1 4,9.1 4,24 12,24 12,9.1 16,9.1 "/>
</svg>
